<?xml version='1.0' encoding='utf-8'?>
<svg xmlns="http://www.w3.org/2000/svg" version="1.2" baseProfile="tiny" x="0px" y="0px" width="0.44444in" height="0.11111in" viewBox="0 0 32 8">

<g id="breadboard">
<rect id="connector0pin" x="1.455" y="2.392" fill="none" width="0.72" height="0.72" />
<rect id="connector1pin" x="28.165" y="2.392" fill="none" width="0.721" height="0.72" />
<line id="connector0leg" fill="none" stroke="#8C8C8C" stroke-width="2.91" stroke-linecap="round" x1="1.455" y1="3.439" x2="1.855" y2="3.439" />
<line id="connector1leg" fill="none" stroke="#8C8C8C" stroke-width="2.91" stroke-linecap="round" x1="30.2" y1="3.439" x2="29.8" y2="3.439" />
<path fill="none" stroke="#8C8C8C" stroke-width="2.91" d="M1.455,3.439h28.316" />
<path id="body" fill="#7BC6B8" d="M10.655,0.302c-0.36-0.166-0.979-0.295-1.375-0.295H7.293c-0.396,0-0.72,0.324-0.72,0.72v5.356  c0,0.396,0.324,0.72,0.72,0.72H9.28c0.396,0,1.015-0.136,1.375-0.296l0.072-0.035c0.36-0.165,0.979-0.295,1.375-0.295h7.185  c0.397,0,1.016,0.137,1.375,0.295l0.072,0.035c0.361,0.166,0.979,0.296,1.376,0.296h1.987c0.396,0,0.72-0.323,0.72-0.72V0.727  c0-0.396-0.323-0.72-0.72-0.72h-1.987c-0.397,0-1.015,0.137-1.376,0.295l-0.072,0.036c-0.359,0.166-0.978,0.295-1.375,0.295h-7.185  c-0.396,0-1.015-0.137-1.375-0.295L10.655,0.302z" />
<rect id="gold_band" x="22.426" y="0" fill="#AD9F4E" width="0.703" height="6.796" />
<rect id="band_3" x="15.14" y="0.633" fill="#8A3D06" width="1.851" height="5.537" />
<rect id="band_2_nd" x="12.16" y="0.633" fill="#C40808" width="1.85" height="5.537" />
<path id="band_rd_multiplier" fill="#8A3D06" d="M18.004,0.636c0,0,1.197,0,1.4,0s0.438-0.063,0.438-0.063v5.672c0,0-0.203-0.065-0.438-0.065  s-1.4-0.007-1.4-0.007V0.636z" />
<path id="band_1_st" fill="#C40808" d="M11.036,0.446c-0.115-0.036-0.223-0.072-0.31-0.115l-0.072-0.036  C10.295,0.13,9.676,0,9.28,0H9.193v6.796H9.28c0.396,0,1.015-0.137,1.375-0.295l0.072-0.036c0.086-0.044,0.195-0.079,0.31-0.115  V0.446z" />
</g>
</svg>