<?xml version='1.0' encoding='utf-8'?>
<svg xmlns="http://www.w3.org/2000/svg" version="1.2" baseProfile="tiny" x="0" y="0" width="0.42917in" height="0.0971in" viewBox="0 0 42.917 9.71">
<g id="breadboard">


	<rect id="connector0pin" x="0.5" y="3.59" fill="none" width="1" height="1" />
	<rect id="connector1pin" x="41.417" y="3.59" fill="none" width="1" height="1" />
  
	<line id="connector0leg" stroke-linecap="round" x1="1.455" y1="5.045" x2="2.91" y2="5.045" stroke="#8C8C8C" fill="none" stroke-width="2.91" />
	<line id="connector1leg" stroke-linecap="round" x1="41.462" y1="5.045" x2="40.007" y2="5.045" stroke="#8C8C8C" fill="none" stroke-width="2.91" />

	<path fill="none" stroke="#8C8C8C" stroke-width="2.91" d="M1.455,5.045l39.398,0" />
	
	<path id="body" fill="#D9B477" d="M14.233,0.688c-0.5-0.23-1.36-0.41-1.91-0.41h-2.76c-0.55,0-1,0.45-1,1v7.439c0,0.551,0.45,1,1,1   h2.76c0.55,0,1.41-0.189,1.91-0.41l0.1-0.049c0.5-0.23,1.36-0.41,1.91-0.41h9.98c0.551,0,1.409,0.189,1.909,0.41l0.101,0.049   c0.5,0.23,1.358,0.41,1.91,0.41h2.76c0.552,0,1-0.449,1-1V1.278c0-0.55-0.448-1-1-1h-2.76c-0.552,0-1.41,0.19-1.91,0.41   l-0.101,0.05c-0.5,0.23-1.358,0.41-1.909,0.41h-9.98c-0.55,0-1.41-0.19-1.91-0.41L14.233,0.688z" /> 
	<rect id="gold_band" x="30.582" y="0.269" fill="#AD9F4E" width="0.976" height="9.438" />
	<rect id="band_rd_multiplier" fill="#8A3D06" x="22.462" y="1.148" width="2.57" height="7.69" />
	<rect id="band_2_nd" fill="#C40808" x="17.323" y="1.148" width="2.57" height="7.69" />
	<path id="band_1_st" fill="#C40808" d="M14.762,0.888c-0.16-0.05-0.31-0.1-0.43-0.16l-0.1-0.05c-0.5-0.229-1.36-0.41-1.91-0.41   h-0.12v9.439h0.12c0.55,0,1.41-0.189,1.91-0.41l0.1-0.049c0.12-0.062,0.27-0.111,0.43-0.16V0.888z" />
	</g>
</svg>